<?xml version="1.0" encoding="iso-8859-1"?>
<!-- Uploaded to: SVG Repo, www.svgrepo.com, Generator: SVG Repo Mixer Tools -->
<svg fill="#000000" height="800px" width="800px" version="1.1" id="Capa_1" xmlns="http://www.w3.org/2000/svg" xmlns:xlink="http://www.w3.org/1999/xlink" 
	 viewBox="0 0 477.8 477.8" xml:space="preserve">
<g>
	<g>
		<g>
			<path d="M323.7,245.65c-44.9,0-81.9,37.1-81.9,81.9c0,44.9,37.1,81.9,81.9,81.9c45.8,0,81.9-37.1,81.9-81.9
				S368.6,245.65,323.7,245.65z M323.7,370.45c-23.4,0-42.9-19.5-42.9-42.9s19.5-42.9,42.9-42.9c24.4,0,42.9,19.5,42.9,42.9
				S347.1,370.45,323.7,370.45z"/>
			<path d="M406.2,129.35L135.5,26.75c-3.9-15.4-18.4-26.7-35-26.7c-19.5,0-35.1,16.6-35.1,36.1s15.6,35.1,35.1,35.1
				c8,0,15.5-2.8,21.5-7.4l172.7,64.9H81.9c-44.9,0-81.9,37.1-81.9,81.9v185.2c0,44.9,37.1,81.9,81.9,81.9h314
				c44.9,0,81.9-37.1,81.9-81.9v-185.3C477.8,169.25,446.3,134.55,406.2,129.35z M438.8,395.85c0,23.4-19.5,42.9-42.9,42.9h-314
				c-23.4,0-42.9-19.5-42.9-42.9v-185.3c0-23.4,19.5-42.9,42.9-42.9h314c23.4,0,42.9,19.5,42.9,42.9V395.85z"/>
			<path d="M247.7,232.05c0-10.7-8.8-19.5-19.5-19.5H82.9c-10.7,0-19.5,8.8-19.5,19.5s8.8,19.5,19.5,19.5h144.3
				C237.9,251.55,247.7,242.75,247.7,232.05z"/>
		</g>
	</g>
</g>
</svg>